<mxfile host="app.diagrams.net" modified="2024-05-02T15:03:53.144Z" agent="Mozilla/5.0 (Windows NT 10.0; Win64; x64) AppleWebKit/537.36 (KHTML, like Gecko) Chrome/124.0.0.0 Safari/537.36" etag="gHPSfFP4tLVCdIr-kL-m" version="24.3.1" type="github">
  <diagram name="Страница — 1" id="asyW8-UnVNkZ89y227c-">
    <mxGraphModel dx="867" dy="1633" grid="1" gridSize="10" guides="1" tooltips="1" connect="1" arrows="1" fold="1" page="1" pageScale="1" pageWidth="827" pageHeight="1169" math="0" shadow="0">
      <root>
        <mxCell id="0" />
        <mxCell id="1" parent="0" />
        <mxCell id="5xl0s4pEtCrvh_Mpd0_K-3" value="" style="edgeStyle=orthogonalEdgeStyle;rounded=0;orthogonalLoop=1;jettySize=auto;html=1;" edge="1" parent="1" source="5xl0s4pEtCrvh_Mpd0_K-1" target="5xl0s4pEtCrvh_Mpd0_K-2">
          <mxGeometry relative="1" as="geometry" />
        </mxCell>
        <mxCell id="5xl0s4pEtCrvh_Mpd0_K-5" value="" style="edgeStyle=orthogonalEdgeStyle;rounded=0;orthogonalLoop=1;jettySize=auto;html=1;" edge="1" parent="1" source="5xl0s4pEtCrvh_Mpd0_K-1" target="5xl0s4pEtCrvh_Mpd0_K-4">
          <mxGeometry relative="1" as="geometry" />
        </mxCell>
        <mxCell id="5xl0s4pEtCrvh_Mpd0_K-7" value="" style="edgeStyle=orthogonalEdgeStyle;rounded=0;orthogonalLoop=1;jettySize=auto;html=1;" edge="1" parent="1" source="5xl0s4pEtCrvh_Mpd0_K-1" target="5xl0s4pEtCrvh_Mpd0_K-6">
          <mxGeometry relative="1" as="geometry" />
        </mxCell>
        <mxCell id="5xl0s4pEtCrvh_Mpd0_K-9" value="" style="edgeStyle=orthogonalEdgeStyle;rounded=0;orthogonalLoop=1;jettySize=auto;html=1;" edge="1" parent="1" source="5xl0s4pEtCrvh_Mpd0_K-1" target="5xl0s4pEtCrvh_Mpd0_K-8">
          <mxGeometry relative="1" as="geometry" />
        </mxCell>
        <mxCell id="5xl0s4pEtCrvh_Mpd0_K-1" value="Weather API app" style="rounded=1;whiteSpace=wrap;html=1;fillColor=#dae8fc;strokeColor=#6c8ebf;" vertex="1" parent="1">
          <mxGeometry x="354" y="170" width="120" height="60" as="geometry" />
        </mxCell>
        <mxCell id="5xl0s4pEtCrvh_Mpd0_K-2" value="Посмотреть подробный&amp;nbsp;&lt;span style=&quot;background-color: initial;&quot;&gt;прогноз на сегодня&lt;/span&gt;" style="whiteSpace=wrap;html=1;rounded=1;" vertex="1" parent="1">
          <mxGeometry x="510" y="170" width="120" height="60" as="geometry" />
        </mxCell>
        <mxCell id="5xl0s4pEtCrvh_Mpd0_K-4" value="Посмотреть прогноз на прошлый день" style="rounded=1;whiteSpace=wrap;html=1;" vertex="1" parent="1">
          <mxGeometry x="354" y="80" width="120" height="60" as="geometry" />
        </mxCell>
        <mxCell id="5xl0s4pEtCrvh_Mpd0_K-6" value="Посмотреть прогноз на неделю" style="rounded=1;whiteSpace=wrap;html=1;" vertex="1" parent="1">
          <mxGeometry x="354" y="260" width="120" height="60" as="geometry" />
        </mxCell>
        <mxCell id="5xl0s4pEtCrvh_Mpd0_K-8" value="Выбрать местоположение" style="rounded=1;whiteSpace=wrap;html=1;" vertex="1" parent="1">
          <mxGeometry x="200" y="170" width="120" height="60" as="geometry" />
        </mxCell>
        <mxCell id="5xl0s4pEtCrvh_Mpd0_K-10" value="Содержит список блоков из 7 дней.&lt;div&gt;&lt;br&gt;&lt;div&gt;&lt;b&gt;Каждый блок содержит:&lt;/b&gt;&lt;/div&gt;&lt;/div&gt;&lt;div&gt;&lt;ol&gt;&lt;li&gt;Среднюю температуру&lt;/li&gt;&lt;li&gt;Осадки есть/нет&lt;/li&gt;&lt;li&gt;Давление&lt;/li&gt;&lt;li&gt;Ветер в среднем&lt;/li&gt;&lt;li&gt;Влажность&lt;/li&gt;&lt;/ol&gt;&lt;i&gt;*без возможности посмотреть подробный прогноз&lt;/i&gt;&lt;/div&gt;" style="whiteSpace=wrap;html=1;aspect=fixed;align=left;fillColor=#d5e8d4;strokeColor=#82b366;" vertex="1" parent="1">
          <mxGeometry x="450" y="340" width="196" height="196" as="geometry" />
        </mxCell>
        <mxCell id="5xl0s4pEtCrvh_Mpd0_K-11" value="" style="endArrow=classic;html=1;rounded=0;exitX=1;exitY=0.5;exitDx=0;exitDy=0;entryX=0.51;entryY=0;entryDx=0;entryDy=0;entryPerimeter=0;" edge="1" parent="1" source="5xl0s4pEtCrvh_Mpd0_K-6" target="5xl0s4pEtCrvh_Mpd0_K-10">
          <mxGeometry width="50" height="50" relative="1" as="geometry">
            <mxPoint x="480" y="420" as="sourcePoint" />
            <mxPoint x="550" y="330" as="targetPoint" />
            <Array as="points">
              <mxPoint x="550" y="290" />
              <mxPoint x="550" y="310" />
            </Array>
          </mxGeometry>
        </mxCell>
        <mxCell id="5xl0s4pEtCrvh_Mpd0_K-12" value="Содержит список блоков из 24 часов (от текущего)&lt;div&gt;&lt;br&gt;&lt;div&gt;&lt;b&gt;Каждый блок содержит:&lt;/b&gt;&lt;/div&gt;&lt;/div&gt;&lt;div&gt;&lt;ol&gt;&lt;li&gt;Температуру&lt;/li&gt;&lt;li&gt;Осадки есть/нет&lt;/li&gt;&lt;li&gt;Давление&lt;/li&gt;&lt;li&gt;Ветер в среднем&lt;/li&gt;&lt;li&gt;Влажность&lt;/li&gt;&lt;/ol&gt;&lt;/div&gt;" style="whiteSpace=wrap;html=1;aspect=fixed;align=left;fillColor=#d5e8d4;strokeColor=#82b366;" vertex="1" parent="1">
          <mxGeometry x="690" y="130" width="180" height="180" as="geometry" />
        </mxCell>
        <mxCell id="5xl0s4pEtCrvh_Mpd0_K-14" value="Содержит список блоков из 24 часов (от текущего).&lt;div&gt;&lt;br&gt;&lt;div&gt;&lt;b&gt;Каждый блок содержит:&lt;/b&gt;&lt;/div&gt;&lt;/div&gt;&lt;div&gt;&lt;ol&gt;&lt;li&gt;Среднюю температуру&lt;/li&gt;&lt;li&gt;Осадки есть/нет&lt;/li&gt;&lt;li&gt;Давление&lt;/li&gt;&lt;li&gt;Ветер в среднем&lt;/li&gt;&lt;li&gt;Влажность&lt;/li&gt;&lt;/ol&gt;&lt;/div&gt;" style="whiteSpace=wrap;html=1;aspect=fixed;align=left;fillColor=#d5e8d4;strokeColor=#82b366;" vertex="1" parent="1">
          <mxGeometry x="510" y="-80" width="180" height="180" as="geometry" />
        </mxCell>
        <mxCell id="5xl0s4pEtCrvh_Mpd0_K-15" value="" style="edgeStyle=orthogonalEdgeStyle;rounded=0;orthogonalLoop=1;jettySize=auto;html=1;entryX=0;entryY=0.5;entryDx=0;entryDy=0;" edge="1" parent="1">
          <mxGeometry relative="1" as="geometry">
            <mxPoint x="413" y="80" as="sourcePoint" />
            <mxPoint x="510" as="targetPoint" />
            <Array as="points">
              <mxPoint x="413" />
            </Array>
          </mxGeometry>
        </mxCell>
        <mxCell id="5xl0s4pEtCrvh_Mpd0_K-16" value="Содержит поле ввода. Когда пользователь начинает вводить название, то появляется список возможных вариантов.&lt;div&gt;&lt;br&gt;&lt;/div&gt;&lt;div&gt;&lt;i&gt;*нельзя выбрать пункт, которого нет в списке&lt;/i&gt;&lt;/div&gt;" style="whiteSpace=wrap;html=1;aspect=fixed;align=left;fillColor=#d5e8d4;strokeColor=#82b366;" vertex="1" parent="1">
          <mxGeometry x="80" y="250" width="150" height="150" as="geometry" />
        </mxCell>
        <mxCell id="5xl0s4pEtCrvh_Mpd0_K-17" value="" style="edgeStyle=orthogonalEdgeStyle;rounded=0;orthogonalLoop=1;jettySize=auto;html=1;entryX=0.464;entryY=-0.003;entryDx=0;entryDy=0;entryPerimeter=0;" edge="1" parent="1">
          <mxGeometry relative="1" as="geometry">
            <mxPoint x="200" y="200.04999999999998" as="sourcePoint" />
            <mxPoint x="119.60000000000014" y="249.99999999999994" as="targetPoint" />
            <Array as="points">
              <mxPoint x="120" y="200.45" />
              <mxPoint x="120" y="225.45" />
            </Array>
          </mxGeometry>
        </mxCell>
        <mxCell id="5xl0s4pEtCrvh_Mpd0_K-18" value="" style="endArrow=classic;html=1;rounded=0;exitX=1;exitY=0.5;exitDx=0;exitDy=0;entryX=-0.009;entryY=0.384;entryDx=0;entryDy=0;entryPerimeter=0;" edge="1" parent="1" source="5xl0s4pEtCrvh_Mpd0_K-2" target="5xl0s4pEtCrvh_Mpd0_K-12">
          <mxGeometry width="50" height="50" relative="1" as="geometry">
            <mxPoint x="640" y="230" as="sourcePoint" />
            <mxPoint x="690" y="180" as="targetPoint" />
          </mxGeometry>
        </mxCell>
        <mxCell id="5xl0s4pEtCrvh_Mpd0_K-22" value="" style="edgeStyle=orthogonalEdgeStyle;rounded=0;orthogonalLoop=1;jettySize=auto;html=1;" edge="1" parent="1" source="5xl0s4pEtCrvh_Mpd0_K-19" target="5xl0s4pEtCrvh_Mpd0_K-21">
          <mxGeometry relative="1" as="geometry" />
        </mxCell>
        <mxCell id="5xl0s4pEtCrvh_Mpd0_K-19" value="Вход в приложение" style="rounded=0;whiteSpace=wrap;html=1;fillColor=#fff2cc;strokeColor=#d6b656;" vertex="1" parent="1">
          <mxGeometry x="474" y="-920" width="120" height="60" as="geometry" />
        </mxCell>
        <mxCell id="5xl0s4pEtCrvh_Mpd0_K-24" value="" style="edgeStyle=orthogonalEdgeStyle;rounded=0;orthogonalLoop=1;jettySize=auto;html=1;" edge="1" parent="1" source="5xl0s4pEtCrvh_Mpd0_K-21" target="5xl0s4pEtCrvh_Mpd0_K-23">
          <mxGeometry relative="1" as="geometry" />
        </mxCell>
        <mxCell id="5xl0s4pEtCrvh_Mpd0_K-21" value="Заставка" style="rounded=0;whiteSpace=wrap;html=1;fillColor=#fff2cc;strokeColor=#d6b656;" vertex="1" parent="1">
          <mxGeometry x="474" y="-840" width="120" height="60" as="geometry" />
        </mxCell>
        <mxCell id="5xl0s4pEtCrvh_Mpd0_K-26" value="" style="edgeStyle=orthogonalEdgeStyle;rounded=0;orthogonalLoop=1;jettySize=auto;html=1;" edge="1" parent="1" source="5xl0s4pEtCrvh_Mpd0_K-23" target="5xl0s4pEtCrvh_Mpd0_K-25">
          <mxGeometry relative="1" as="geometry" />
        </mxCell>
        <mxCell id="5xl0s4pEtCrvh_Mpd0_K-28" value="" style="edgeStyle=orthogonalEdgeStyle;rounded=0;orthogonalLoop=1;jettySize=auto;html=1;" edge="1" parent="1" source="5xl0s4pEtCrvh_Mpd0_K-23" target="5xl0s4pEtCrvh_Mpd0_K-27">
          <mxGeometry relative="1" as="geometry" />
        </mxCell>
        <mxCell id="5xl0s4pEtCrvh_Mpd0_K-30" value="" style="edgeStyle=orthogonalEdgeStyle;rounded=0;orthogonalLoop=1;jettySize=auto;html=1;" edge="1" parent="1" source="5xl0s4pEtCrvh_Mpd0_K-23" target="5xl0s4pEtCrvh_Mpd0_K-29">
          <mxGeometry relative="1" as="geometry" />
        </mxCell>
        <mxCell id="5xl0s4pEtCrvh_Mpd0_K-23" value="Главная (погода на 24 часа вперд)" style="rounded=0;whiteSpace=wrap;html=1;fillColor=#fff2cc;strokeColor=#d6b656;" vertex="1" parent="1">
          <mxGeometry x="474" y="-760" width="120" height="60" as="geometry" />
        </mxCell>
        <mxCell id="5xl0s4pEtCrvh_Mpd0_K-25" value="Погода на 24 часа назад" style="rounded=0;whiteSpace=wrap;html=1;fillColor=#fff2cc;strokeColor=#d6b656;" vertex="1" parent="1">
          <mxGeometry x="330" y="-760" width="120" height="60" as="geometry" />
        </mxCell>
        <mxCell id="5xl0s4pEtCrvh_Mpd0_K-27" value="Погода на 7 дней" style="rounded=0;whiteSpace=wrap;html=1;fillColor=#fff2cc;strokeColor=#d6b656;" vertex="1" parent="1">
          <mxGeometry x="620" y="-760" width="120" height="60" as="geometry" />
        </mxCell>
        <mxCell id="5xl0s4pEtCrvh_Mpd0_K-29" value="Подробный прогноз погоды на сегодня" style="rounded=0;whiteSpace=wrap;html=1;fillColor=#fff2cc;strokeColor=#d6b656;" vertex="1" parent="1">
          <mxGeometry x="474" y="-680" width="120" height="60" as="geometry" />
        </mxCell>
        <mxCell id="5xl0s4pEtCrvh_Mpd0_K-31" value="" style="endArrow=none;dashed=1;html=1;dashPattern=1 3;strokeWidth=2;rounded=0;exitX=1;exitY=1;exitDx=0;exitDy=0;" edge="1" parent="1" source="5xl0s4pEtCrvh_Mpd0_K-23">
          <mxGeometry width="50" height="50" relative="1" as="geometry">
            <mxPoint x="640" y="-610" as="sourcePoint" />
            <mxPoint x="680" y="-640" as="targetPoint" />
            <Array as="points">
              <mxPoint x="594" y="-690" />
              <mxPoint x="680" y="-690" />
            </Array>
          </mxGeometry>
        </mxCell>
        <mxCell id="5xl0s4pEtCrvh_Mpd0_K-32" value="Vertical Container" style="swimlane;whiteSpace=wrap;html=1;fillColor=#fff2cc;strokeColor=#d6b656;" vertex="1" parent="1">
          <mxGeometry x="646" y="-640" width="250" height="140" as="geometry" />
        </mxCell>
        <mxCell id="5xl0s4pEtCrvh_Mpd0_K-33" value="Смена темы (светлая/темная/кастомная)" style="text;html=1;align=center;verticalAlign=middle;resizable=0;points=[];autosize=1;strokeColor=none;fillColor=none;" vertex="1" parent="5xl0s4pEtCrvh_Mpd0_K-32">
          <mxGeometry y="40" width="250" height="30" as="geometry" />
        </mxCell>
        <mxCell id="5xl0s4pEtCrvh_Mpd0_K-34" value="Выбор населенного пункта" style="text;html=1;align=center;verticalAlign=middle;resizable=0;points=[];autosize=1;strokeColor=none;fillColor=none;" vertex="1" parent="5xl0s4pEtCrvh_Mpd0_K-32">
          <mxGeometry y="70" width="170" height="30" as="geometry" />
        </mxCell>
        <mxCell id="5xl0s4pEtCrvh_Mpd0_K-35" value="Другие проекты и мой сайт" style="text;html=1;align=center;verticalAlign=middle;resizable=0;points=[];autosize=1;strokeColor=none;fillColor=none;" vertex="1" parent="5xl0s4pEtCrvh_Mpd0_K-32">
          <mxGeometry y="100" width="170" height="30" as="geometry" />
        </mxCell>
      </root>
    </mxGraphModel>
  </diagram>
</mxfile>
